#!OML:ASF E:\emotionWalksFemale\Project 1\Capture day 1\Session 1\Female1.ASF
:FULLY-SPECIFIED
:DEGREES
261
root 8.03923 15.1112 41.9741 -177.252 -3.43317 -177.217
lowerback 6.26601 2.83705 -3.9147
upperback -2.47492 2.85766 -4.97048
thorax -6.05854 1.32556 -3.32332
lowerneck -7.35145 -0.202009 -5.72885
upperneck 19.8831 -1.86626 7.64204
head 7.3924 -1.02535 3.26414
rclavicle 2.21645e-014 1.43125e-014
rhumerus -35.4555 52.1852 -124.138
rradius 35.8256
rwrist 15.2595
rhand 5.25758 -54.6236
rfingers 7.12502
rthumb 30.6156 -82.0976
lclavicle 2.21645e-014 1.43125e-014
lhumerus -58.4024 -65.7252 145.361
lradius 103.532
lwrist 30.832
lhand 14.6582 -30.1465
lfingers 7.12502
lthumb 39.5298 -4.78032
rfemur -10.6273 10.9251 24.8717
rtibia 29.2062
rfoot -21.7479 -24.456
rtoes 6.98647
lfemur -14.0471 -21.6374 -21.5297
ltibia 33.773
lfoot -28.1806 16.6199
ltoes -17.2804
262
root 8.02309 15.1144 41.9693 -177.09 -3.38112 -177.153
lowerback 6.04215 2.78275 -3.70137
upperback -2.51047 2.81796 -4.9942
thorax -5.95603 1.29839 -3.45122
lowerneck -7.39447 -0.245499 -5.7824
upperneck 19.8725 -1.9306 7.718
head 7.4023 -1.05241 3.29297
rclavicle 6.43068e-014 -5.24792e-014
rhumerus -35.5319 52.3604 -124.289
rradius 35.8116
rwrist 14.9662
rhand 4.86721 -54.8104
rfingers 7.12502
rthumb 30.2433 -82.3533
lclavicle 6.43068e-014 -5.24792e-014
lhumerus -58.3863 -65.5877 145.271
lradius 103.504
lwrist 30.663
lhand 14.6076 -30.3562
lfingers 7.12502
lthumb 39.4821 -4.97605
rfemur -10.7903 11.123 24.8568
rtibia 29.1841
rfoot -21.6622 -24.7169
rtoes 5.96883
lfemur -14.2006 -21.8524 -21.4698
ltibia 33.7477
lfoot -28.3048 16.7862
ltoes -17.2113
263
root 8.01182 15.1177 41.9652 -177.011 -3.18948 -177.084
lowerback 5.91188 2.78954 -3.62168
upperback -2.53717 2.84397 -4.98429
thorax -5.90489 1.30948 -3.4818
lowerneck -7.47349 -0.270969 -5.86583
upperneck 19.8878 -1.97845 7.85288
head 7.42641 -1.06861 3.34829
rclavicle 6.85807e-015 -3.49861e-014
rhumerus -35.5102 52.3958 -124.312
rradius 35.7926
rwrist 14.9698
rhand 5.00261 -54.9896
rfingers 7.12502
rthumb 30.3725 -82.5088
lclavicle 6.85807e-015 -3.49861e-014
lhumerus -58.5315 -65.4987 145.431
lradius 103.54
lwrist 30.7794
lhand 14.762 -29.9829
lfingers 7.12502
lthumb 39.6276 -4.64561
rfemur -10.8718 11.3583 24.873
rtibia 29.1802
rfoot -21.6253 -24.8862
rtoes 5.49233
lfemur -14.2248 -21.7052 -21.4282
ltibia 33.7216
lfoot -28.2897 16.9669
ltoes -18.2447
264
root 8.0015 15.119 41.9615 -176.928 -2.98576 -177.129
lowerback 5.89631 2.78827 -3.71205
upperback -2.63022 2.8275 -4.97246
thorax -6.00057 1.30366 -3.42072
lowerneck -7.57127 -0.249665 -5.93296
upperneck 20.0284 -1.97185 7.93745
head 7.49018 -1.06585 3.39039
rclavicle -2.78299e-014 1.22451e-013
rhumerus -35.8079 52.3923 -124.507
rradius 35.9461
rwrist 14.9174
rhand 5.28936 -55.09
rfingers 7.12502
rthumb 30.6459 -82.5583
lclavicle -2.78299e-014 1.22451e-013
lhumerus -58.5234 -65.3228 145.455
lradius 103.423
lwrist 30.6587
lhand 14.9148 -30.0479
lfingers 7.12502
lthumb 39.7715 -4.75327
rfemur -10.9662 11.3651 24.7512
rtibia 29.1759
rfoot -21.6519 -24.5537
rtoes 6.25105
lfemur -14.2585 -21.5864 -21.516
ltibia 33.7188
lfoot -28.2092 17.1475
ltoes -18.794
265
root 7.99151 15.1168 41.9583 -176.842 -2.76197 -177.104
lowerback 5.74692 2.79363 -3.86243
upperback -2.64643 2.84438 -4.86216
thorax -5.94486 1.32304 -3.21491
lowerneck -7.67271 -0.26618 -5.97414
upperneck 20.0855 -1.95417 7.79707
head 7.52565 -1.06854 3.35342
rclavicle -3.37934e-015 -3.18055e-015
rhumerus -36.0252 52.6202 -124.571
rradius 36.0763
rwrist 14.7055
rhand 5.30583 -54.9322
rfingers 7.12502
rthumb 30.6616 -82.3976
lclavicle -3.37934e-015 -3.18055e-015
lhumerus -58.1846 -65.2778 145.298
lradius 103.269
lwrist 30.5603
lhand 14.3846 -30.0797
lfingers 7.12502
lthumb 39.2721 -4.63818
rfemur -11.08 11.5407 24.7082
rtibia 29.1961
rfoot -21.7191 -24.2957
rtoes 7.30989
lfemur -14.3205 -21.4081 -21.5131
ltibia 33.7269
lfoot -28.2728 17.1388
ltoes -18.2948
266
root 7.98087 15.1152 41.9547 -176.819 -2.57046 -177.01
lowerback 5.75138 2.78332 -3.82063
upperback -2.69456 2.83781 -4.81405
thorax -5.9983 1.32116 -3.18955
lowerneck -7.55361 -0.273856 -5.9726
upperneck 19.9107 -1.94152 7.75587
head 7.4459 -1.06462 3.33796
rclavicle 1.85864e-014 -1.11319e-014
rhumerus -35.9764 52.5638 -124.614
rradius 35.9173
rwrist 14.7579
rhand 5.29033 -54.7642
rfingers 7.12502
rthumb 30.6469 -82.2323
lclavicle 1.85864e-014 -1.11319e-014
lhumerus -58.1277 -65.2933 145.262
lradius 103.294
lwrist 30.6403
lhand 14.0066 -29.8134
lfingers 7.12502
lthumb 38.9157 -4.26924
rfemur -11.1287 11.7328 24.7654
rtibia 29.2441
rfoot -21.7831 -24.4036
rtoes 7.3698
lfemur -14.3035 -21.2153 -21.4593
ltibia 33.7254
lfoot -28.4162 17.0465
ltoes -17.211
267
root 7.96965 15.1127 41.9514 -176.839 -2.40345 -176.997
lowerback 5.73839 2.78278 -3.8089
upperback -2.68086 2.83745 -4.82887
thorax -5.97506 1.31953 -3.21016
lowerneck -7.36704 -0.31092 -6.02416
upperneck 19.579 -1.9875 7.9103
head 7.30892 -1.07488 3.3894
rclavicle -5.07398e-014 3.02153e-014
rhumerus -35.6891 52.3528 -124.448
rradius 35.7559
rwrist 15.0223
rhand 5.45228 -54.712
rfingers 7.12502
rthumb 30.8013 -82.1511
lclavicle -5.07398e-014 3.02153e-014
lhumerus -58.2309 -65.4005 145.301
lradius 103.418
lwrist 30.7199
lhand 14.1463 -29.7987
lfingers 7.12502
lthumb 39.0474 -4.2923
rfemur -11.1303 11.8373 24.7435
rtibia 29.2944
rfoot -21.8459 -24.5501
rtoes 6.73725
lfemur -14.1954 -21.3198 -21.5421
ltibia 33.7116
lfoot -28.5166 17.3271
ltoes -16.8799
268
root 7.9583 15.1095 41.9467 -176.93 -2.17661 -177.033
lowerback 5.74331 2.80987 -3.90153
upperback -2.60912 2.87093 -4.81338
thorax -5.90705 1.33979 -3.14279
lowerneck -7.42857 -0.349918 -6.08003
upperneck 19.4164 -2.02245 8.01198
head 7.27111 -1.07913 3.42794
rclavicle 1.30701e-014 3.33958e-014
rhumerus -35.6216 52.4335 -124.32
rradius 35.8454
rwrist 15.019
rhand 5.12188 -54.6655
rfingers 7.12502
rthumb 30.4862 -82.1636
lclavicle 1.30701e-014 3.33958e-014
lhumerus -58.1538 -65.4211 145.25
lradius 103.492
lwrist 30.6197
lhand 13.7748 -29.8945
lfingers 7.12502
lthumb 38.6971 -4.28844
rfemur -11.0531 11.9305 24.6728
rtibia 29.3565
rfoot -21.8265 -24.5406
rtoes 6.01621
lfemur -13.9545 -21.492 -21.7262
ltibia 33.6562
lfoot -28.6858 17.5052
ltoes -15.8869
269
root 7.94736 15.1088 41.9388 -177.011 -1.99884 -177.064
lowerback 5.69817 2.81252 -3.9423
upperback -2.51671 2.88178 -4.80115
thorax -5.78606 1.34712 -3.10135
lowerneck -7.59816 -0.366845 -6.24793
upperneck 19.2703 -2.01442 8.1897
head 7.25609 -1.06011 3.51509
rclavicle -3.06128e-014 -3.18055e-015
rhumerus -35.6276 52.5426 -124.242
rradius 35.9773
rwrist 15.035
rhand 4.69648 -54.5319
rfingers 7.12502
rthumb 30.0804 -82.1046
lclavicle -3.06128e-014 -3.18055e-015
lhumerus -57.849 -65.4723 145.008
lradius 103.572
lwrist 30.6522
lhand 13.9864 -29.9083
lfingers 7.12502
lthumb 38.8967 -4.35878
rfemur -10.978 11.9406 24.6124
rtibia 29.4361
rfoot -21.7561 -24.483
rtoes 5.46838
lfemur -13.7282 -21.5852 -21.8859
ltibia 33.5703
lfoot -28.8259 17.5114
ltoes -14.2416
